<svg aria-roledescription="quadrantChart" role="graphics-document document" viewBox="0 0 500 500" style="max-width: 100%;" xmlns="http://www.w3.org/2000/svg" width="100%" id="graph-div" height="100%" xmlns:xlink="http://www.w3.org/1999/xlink"><style>@import url("https://cdnjs.cloudflare.com/ajax/libs/font-awesome/6.4.0/css/all.min.css");'</style><style>#graph-div{font-family:"trebuchet ms",verdana,arial,sans-serif;font-size:16px;fill:#000000;}#graph-div .error-icon{fill:#552222;}#graph-div .error-text{fill:#552222;stroke:#552222;}#graph-div .edge-thickness-normal{stroke-width:2px;}#graph-div .edge-thickness-thick{stroke-width:3.5px;}#graph-div .edge-pattern-solid{stroke-dasharray:0;}#graph-div .edge-pattern-dashed{stroke-dasharray:3;}#graph-div .edge-pattern-dotted{stroke-dasharray:2;}#graph-div .marker{fill:#666;stroke:#666;}#graph-div .marker.cross{stroke:#666;}#graph-div svg{font-family:"trebuchet ms",verdana,arial,sans-serif;font-size:16px;}#graph-div :root{--mermaid-font-family:"trebuchet ms",verdana,arial,sans-serif;}</style><g></g><g class="main"><g class="quadrants"><g class="quadrant"><rect fill="#eee" height="232" width="232" y="5" x="263"></rect><text transform="translate(379, 10) rotate(0)" text-anchor="middle" dominant-baseline="hanging" font-size="16" fill="#111111" y="0" x="0">Code Generation</text></g><g class="quadrant"><rect fill="#f3f3f3" height="232" width="232" y="5" x="31"></rect><text transform="translate(147, 10) rotate(0)" text-anchor="middle" dominant-baseline="hanging" font-size="16" fill="#0c0c0c" y="0" x="0">NOPE</text></g><g class="quadrant"><rect fill="#f8f8f8" height="232" width="232" y="237" x="31"></rect><text transform="translate(147, 242) rotate(0)" text-anchor="middle" dominant-baseline="hanging" font-size="16" fill="#070707" y="0" x="0">Reflection</text></g><g class="quadrant"><rect fill="#fdfdfd" height="232" width="232" y="237" x="263"></rect><text transform="translate(379, 242) rotate(0)" text-anchor="middle" dominant-baseline="hanging" font-size="16" fill="#020202" y="0" x="0"></text></g></g><g class="border"><line style="stroke: rgb(213, 213, 213); stroke-width: 2;" y2="5" x2="496" y1="5" x1="30"></line><line style="stroke: rgb(213, 213, 213); stroke-width: 2;" y2="468" x2="495" y1="6" x1="495"></line><line style="stroke: rgb(213, 213, 213); stroke-width: 2;" y2="469" x2="496" y1="469" x1="30"></line><line style="stroke: rgb(213, 213, 213); stroke-width: 2;" y2="468" x2="31" y1="6" x1="31"></line><line style="stroke: rgb(213, 213, 213); stroke-width: 1;" y2="468" x2="263" y1="6" x1="263"></line><line style="stroke: rgb(213, 213, 213); stroke-width: 1;" y2="237" x2="494" y1="237" x1="32"></line></g><g class="data-points"><g class="data-point"><circle fill="hsl(0, 0%, NaN%)" r="5" cy="376.20000000000005" cx="448.6"></circle><text transform="translate(448.6, 381.20000000000005) rotate(0)" text-anchor="middle" dominant-baseline="hanging" font-size="12" fill="#111111" y="0" x="0">ASM</text></g><g class="data-point"><circle fill="hsl(0, 0%, NaN%)" r="5" cy="422.6" cx="355.8"></circle><text transform="translate(355.8, 427.6) rotate(0)" text-anchor="middle" dominant-baseline="hanging" font-size="12" fill="#111111" y="0" x="0">Byte Buddy</text></g><g class="data-point"><circle fill="hsl(0, 0%, NaN%)" r="5" cy="329.79999999999995" cx="379"></circle><text transform="translate(379, 334.79999999999995) rotate(0)" text-anchor="middle" dominant-baseline="hanging" font-size="12" fill="#111111" y="0" x="0">Lombok</text></g><g class="data-point"><circle fill="hsl(0, 0%, NaN%)" r="5" cy="376.20000000000005" cx="402.2"></circle><text transform="translate(402.2, 381.20000000000005) rotate(0)" text-anchor="middle" dominant-baseline="hanging" font-size="12" fill="#111111" y="0" x="0">GraalVM</text></g><g class="data-point"><circle fill="hsl(0, 0%, NaN%)" r="5" cy="329.79999999999995" cx="170.2"></circle><text transform="translate(170.2, 334.79999999999995) rotate(0)" text-anchor="middle" dominant-baseline="hanging" font-size="12" fill="#111111" y="0" x="0">CGLib</text></g><g class="data-point"><circle fill="hsl(0, 0%, NaN%)" r="5" cy="376.20000000000005" cx="77.4"></circle><text transform="translate(77.4, 381.20000000000005) rotate(0)" text-anchor="middle" dominant-baseline="hanging" font-size="12" fill="#111111" y="0" x="0">Spring Boot</text></g><g class="data-point"><circle fill="hsl(0, 0%, NaN%)" r="5" cy="144.20000000000002" cx="402.2"></circle><text transform="translate(402.2, 149.20000000000002) rotate(0)" text-anchor="middle" dominant-baseline="hanging" font-size="12" fill="#111111" y="0" x="0">Mapstruct</text></g><g class="data-point"><circle fill="hsl(0, 0%, NaN%)" r="5" cy="51.39999999999999" cx="379"></circle><text transform="translate(379, 56.39999999999999) rotate(0)" text-anchor="middle" dominant-baseline="hanging" font-size="12" fill="#111111" y="0" x="0">WSDL/Soap</text></g><g class="data-point"><circle fill="hsl(0, 0%, NaN%)" r="5" cy="51.39999999999999" cx="309.4"></circle><text transform="translate(309.4, 56.39999999999999) rotate(0)" text-anchor="middle" dominant-baseline="hanging" font-size="12" fill="#111111" y="0" x="0">Avro</text></g><g class="data-point"><circle fill="hsl(0, 0%, NaN%)" r="5" cy="97.79999999999998" cx="355.8"></circle><text transform="translate(355.8, 102.79999999999998) rotate(0)" text-anchor="middle" dominant-baseline="hanging" font-size="12" fill="#111111" y="0" x="0">OpenAPI/Swagger</text></g></g><g class="labels"><g class="label"><text transform="translate(31, 479) rotate(0)" text-anchor="start" dominant-baseline="hanging" font-size="16" fill="#111111" y="0" x="0">Runtime</text></g><g class="label"><text transform="translate(263, 479) rotate(0)" text-anchor="start" dominant-baseline="hanging" font-size="16" fill="#111111" y="0" x="0">Compile Time</text></g><g class="label"><text transform="translate(5, 469) rotate(-90)" text-anchor="start" dominant-baseline="hanging" font-size="16" fill="#111111" y="0" x="0">Byte Code</text></g><g class="label"><text transform="translate(5, 237) rotate(-90)" text-anchor="start" dominant-baseline="hanging" font-size="16" fill="#111111" y="0" x="0">Source Code</text></g></g><g class="title"></g></g></svg>